<svg width="190" height="40" viewBox="0 0 190 40" fill="none" xmlns="http://www.w3.org/2000/svg">
<rect width="190" height="40" fill="#A993FF"/>
<path d="M31.6172 27V14.1504H34.3418V24.75H39.5537V27H31.6172Z" fill="white"/>
<path d="M80.2822 20.5576C80.2822 22.6846 79.7549 24.3193 78.7002 25.4619C77.6455 26.6045 76.1338 27.1758 74.165 27.1758C72.1963 27.1758 70.6846 26.6045 69.6299 25.4619C68.5752 24.3193 68.0479 22.6787 68.0479 20.54C68.0479 18.4014 68.5752 16.7695 69.6299 15.6445C70.6904 14.5137 72.208 13.9482 74.1826 13.9482C76.1572 13.9482 77.666 14.5166 78.709 15.6533C79.7578 16.79 80.2822 18.4248 80.2822 20.5576ZM70.9043 20.5576C70.9043 21.9932 71.1768 23.0742 71.7217 23.8008C72.2666 24.5273 73.0811 24.8906 74.165 24.8906C76.3389 24.8906 77.4258 23.4463 77.4258 20.5576C77.4258 17.6631 76.3447 16.2158 74.1826 16.2158C73.0986 16.2158 72.2812 16.582 71.7305 17.3145C71.1797 18.041 70.9043 19.1221 70.9043 20.5576Z" fill="white"/>
<path d="M114.823 19.7842H119.921V26.4463C119.095 26.7158 118.315 26.9033 117.583 27.0088C116.856 27.1201 116.112 27.1758 115.351 27.1758C113.411 27.1758 111.929 26.6074 110.903 25.4707C109.884 24.3281 109.374 22.6904 109.374 20.5576C109.374 18.4834 109.966 16.8662 111.149 15.7061C112.339 14.5459 113.985 13.9658 116.089 13.9658C117.407 13.9658 118.679 14.2295 119.903 14.7568L118.998 16.9365C118.061 16.4678 117.085 16.2334 116.071 16.2334C114.894 16.2334 113.95 16.6289 113.241 17.4199C112.532 18.2109 112.178 19.2744 112.178 20.6104C112.178 22.0049 112.462 23.0713 113.03 23.8096C113.604 24.542 114.437 24.9082 115.526 24.9082C116.095 24.9082 116.672 24.8496 117.258 24.7324V22.0518H114.823V19.7842Z" fill="white"/>
<path d="M161.651 20.5576C161.651 22.6846 161.124 24.3193 160.069 25.4619C159.015 26.6045 157.503 27.1758 155.534 27.1758C153.565 27.1758 152.054 26.6045 150.999 25.4619C149.944 24.3193 149.417 22.6787 149.417 20.54C149.417 18.4014 149.944 16.7695 150.999 15.6445C152.06 14.5137 153.577 13.9482 155.552 13.9482C157.526 13.9482 159.035 14.5166 160.078 15.6533C161.127 16.79 161.651 18.4248 161.651 20.5576ZM152.273 20.5576C152.273 21.9932 152.546 23.0742 153.091 23.8008C153.636 24.5273 154.45 24.8906 155.534 24.8906C157.708 24.8906 158.795 23.4463 158.795 20.5576C158.795 17.6631 157.714 16.2158 155.552 16.2158C154.468 16.2158 153.65 16.582 153.1 17.3145C152.549 18.041 152.273 19.1221 152.273 20.5576Z" fill="white"/>
</svg>
